<?xml version="1.0" encoding="UTF-8" standalone="no"?>
<!-- Created with Inkscape (http://www.inkscape.org/) -->

<svg
   xmlns:dc="http://purl.org/dc/elements/1.1/"
   xmlns:cc="http://creativecommons.org/ns#"
   xmlns:rdf="http://www.w3.org/1999/02/22-rdf-syntax-ns#"
   xmlns:svg="http://www.w3.org/2000/svg"
   xmlns="http://www.w3.org/2000/svg"
   xmlns:sodipodi="http://sodipodi.sourceforge.net/DTD/sodipodi-0.dtd"
   xmlns:inkscape="http://www.inkscape.org/namespaces/inkscape"
   width="700"
   height="700"
   id="svg2"
   version="1.1"
   inkscape:version="0.48.1 r9760"
   sodipodi:docname="public_contracts_ontology_2.svg"
   inkscape:export-filename="/home/jindrichm/Dropbox/Public/images/public_contracts_ontology.png"
   inkscape:export-xdpi="38.57143"
   inkscape:export-ydpi="38.57143">
  <defs
     id="defs4" />
  <sodipodi:namedview
     id="base"
     pagecolor="#ffffff"
     bordercolor="#666666"
     borderopacity="1.0"
     inkscape:pageopacity="0.0"
     inkscape:pageshadow="2"
     inkscape:zoom="0.7"
     inkscape:cx="116.35132"
     inkscape:cy="475.56886"
     inkscape:document-units="px"
     inkscape:current-layer="layer1"
     showgrid="false"
     inkscape:window-width="1366"
     inkscape:window-height="744"
     inkscape:window-x="0"
     inkscape:window-y="24"
     inkscape:window-maximized="1" />
  <metadata
     id="metadata7">
    <rdf:RDF>
      <cc:Work
         rdf:about="">
        <dc:format>image/svg+xml</dc:format>
        <dc:type
           rdf:resource="http://purl.org/dc/dcmitype/StillImage" />
        <dc:title></dc:title>
      </cc:Work>
    </rdf:RDF>
  </metadata>
  <g
     inkscape:label="Layer 1"
     inkscape:groupmode="layer"
     id="layer1"
     transform="translate(0,-352.36218)">
    <text
       xml:space="preserve"
       style="font-size:34.50525665px;font-style:normal;font-variant:normal;font-weight:bold;font-stretch:normal;text-align:center;line-height:125%;letter-spacing:0px;word-spacing:0px;writing-mode:lr-tb;text-anchor:middle;fill:#000000;fill-opacity:1;stroke:none;font-family:Univers Com;-inkscape-font-specification:Univers Com Bold"
       x="182.85715"
       y="284.28571"
       id="text3004"
       sodipodi:linespacing="125%"
       transform="translate(0,352.36218)"><tspan
         sodipodi:role="line"
         id="tspan3006"
         x="182.85715"
         y="284.28571" /></text>
    <text
       xml:space="preserve"
       style="font-size:144px;font-style:normal;font-variant:normal;font-weight:bold;font-stretch:normal;text-align:center;line-height:125%;letter-spacing:0px;word-spacing:0px;writing-mode:lr-tb;text-anchor:middle;fill:#000000;fill-opacity:1;stroke:none;font-family:Reznor;-inkscape-font-specification:Reznor Bold"
       x="884.09912"
       y="794.39197"
       id="text3013"
       sodipodi:linespacing="125%"><tspan
         sodipodi:role="line"
         id="tspan3015"
         x="884.09912"
         y="794.39197" /></text>
    <rect
       style="fill:#ffffff;fill-opacity:1;stroke:none"
       id="rect3349"
       width="700"
       height="700"
       x="0"
       y="352.36218"
       inkscape:export-xdpi="38.57143"
       inkscape:export-ydpi="38.57143" />
    <path
       style="font-size:medium;font-style:normal;font-variant:normal;font-weight:normal;font-stretch:normal;text-indent:0;text-align:start;text-decoration:none;line-height:normal;letter-spacing:normal;word-spacing:normal;text-transform:none;direction:ltr;block-progression:tb;writing-mode:lr-tb;text-anchor:start;baseline-shift:baseline;color:#000000;fill:#000000;fill-opacity:1;fill-rule:nonzero;stroke:none;stroke-width:16;marker:none;visibility:visible;display:inline;overflow:visible;enable-background:accumulate;font-family:Sans;-inkscape-font-specification:Sans"
       d="m 376.31,651.48073 c -1.54183,-0.007 -3.35181,0.0942 -5.56853,0.33943 l -0.24397,0.0318 -0.24394,0.0637 c -18.57509,5.56024 -30.04024,7.12273 -39.58433,7.31865 -2.65604,0.0545 -6.16738,-0.57848 -9.47181,0.71065 -2.27971,0.88934 -4.1207,2.4049 -5.90794,3.83963 -6.98877,5.61033 -16.53589,10.88251 -16.53589,10.88251 l -3.776,2.07891 3.50022,2.5032 154.26428,110.5009 1.82436,1.30464 1.62282,-1.54858 c 8.66702,-8.24042 14.99698,-17.71902 24.18335,-24.17275 2.3029,-1.61787 3.37018,-2.1529 7.27622,-1.99406 l 4.15784,0.1697 -1.52737,-3.88206 c -10.40632,-26.48732 -18.83093,-53.8374 -31.56562,-79.86869 l -1.2516,-2.55622 -2.49259,1.37887 c 0,0 -1.94875,1.06818 -4.423,2.10013 -2.47424,1.03197 -5.59511,1.86734 -6.78832,1.78193 0.0756,0.006 -1.188,-0.42086 -2.10013,-0.96521 -0.91211,-0.54434 -1.62282,-1.07128 -1.62282,-1.07128 l -0.0637,-0.053 -0.0637,-0.0424 c -5.50718,-3.643 -11.23005,-7.39106 -17.78749,-10.54307 l -0.0318,-0.0212 -0.0319,-0.0106 c -7.19672,-3.20565 -14.73698,-5.8864 -21.70137,-9.14302 -4.1649,-1.94752 -8.32811,-5.43781 -13.88421,-7.1065 -3.34618,-1.00495 -5.53577,-2.00515 -10.16124,-2.02589 z m -0.0319,5.37761 c 3.83052,-0.0605 4.9127,0.73119 8.62327,1.84558 4.15445,1.24772 8.1326,4.48348 13.15235,6.83073 7.28413,3.40611 14.85472,6.09792 21.78622,9.18543 l 0,-0.0106 c 6.12404,2.95032 11.59257,6.5298 17.06623,10.15064 l 0,-0.0106 c 0.10178,0.0761 0.85792,0.64985 1.97285,1.31523 1.18688,0.70831 2.49506,1.57574 4.48664,1.7183 3.26037,0.23334 6.50073,-1.04046 9.27029,-2.19561 0.92539,-0.38596 1.60986,-0.7327 2.34409,-1.08187 11.31907,23.71507 19.38359,48.78605 28.94575,73.55766 -2.65202,0.43154 -4.77071,1.39048 -6.67162,2.72594 -9.55411,6.71206 -15.85824,15.68329 -23.22873,23.10145 L 305.04337,677.27631 c 3.39793,-1.99034 8.46807,-5.09912 13.65086,-9.25968 1.74942,-1.40436 3.34675,-2.57177 4.47605,-3.01231 0.89244,-0.34817 4.43299,-0.27409 7.61563,-0.33942 9.99877,-0.20525 22.01322,-1.87115 40.74045,-7.45654 1.968,-0.21331 3.52424,-0.33059 4.75181,-0.35002 z"
       id="path3047"
       inkscape:connector-curvature="0" />
    <path
       style="font-size:medium;font-style:normal;font-variant:normal;font-weight:normal;font-stretch:normal;text-indent:0;text-align:start;text-decoration:none;line-height:normal;letter-spacing:normal;word-spacing:normal;text-transform:none;direction:ltr;block-progression:tb;writing-mode:lr-tb;text-anchor:start;baseline-shift:baseline;color:#000000;fill:#000000;fill-opacity:1;fill-rule:nonzero;stroke:none;stroke-width:8;marker:none;visibility:visible;display:inline;overflow:visible;enable-background:accumulate;font-family:Sans;-inkscape-font-specification:Sans"
       d="m 334.70572,824.31647 -0.71464,0.19314 -8.42098,2.29839 -3.10958,0.83051 1.60308,2.78124 8.96177,15.41272 0.77258,1.33267 1.54513,-0.11589 c 5.97909,-0.44561 11.23509,-4.07366 16.24322,-7.06898 l 1.37131,-0.8112 -0.19314,-1.58376 -0.65668,-5.96808 -0.17383,-1.58377 -1.50651,-0.50217 -15.00711,-4.98305 -0.71462,-0.23177 z m -0.1352,5.15688 12.78598,4.24912 0.32834,2.80056 c -4.03859,2.41263 -7.90222,4.59488 -11.27948,5.29208 l -6.43163,-11.08633 4.59679,-1.25543 z"
       id="path3057"
       inkscape:connector-curvature="0" />
    <path
       style="font-size:medium;font-style:normal;font-variant:normal;font-weight:normal;font-stretch:normal;text-indent:0;text-align:start;text-decoration:none;line-height:normal;letter-spacing:normal;word-spacing:normal;text-transform:none;direction:ltr;block-progression:tb;writing-mode:lr-tb;text-anchor:start;baseline-shift:baseline;color:#000000;fill:#000000;fill-opacity:1;fill-rule:nonzero;stroke:none;stroke-width:16;marker:none;visibility:visible;display:inline;overflow:visible;enable-background:accumulate;font-family:Sans;-inkscape-font-specification:Sans"
       d="m 247.87311,771.64437 -1.38949,2.12135 c -4.07388,6.23774 -6.15864,11.38604 -6.58678,15.93131 -0.42812,4.54528 0.99541,8.44643 3.42598,11.37042 l 0.13788,0.1697 0.16971,0.13789 c 4.24391,3.69028 8.44486,5.15417 12.85535,4.43362 7.95983,-1.30042 15.26705,-5.54132 19.6649,-15.47523 l 1.00763,-2.24861 -2.15317,-1.20918 -24.91521,-13.99027 -2.2168,-1.241 z m 1.85617,7.27623 20.35432,11.41283 c -3.63989,6.78514 -8.30555,9.11039 -14.4782,10.11883 -2.9591,0.48343 -4.75258,-0.0478 -8.2202,-3.02292 -1.57651,-1.95701 -2.37699,-4.0587 -2.07892,-7.22319 0.26554,-2.81912 1.62825,-6.57932 4.423,-11.28555 z"
       id="path3051"
       inkscape:connector-curvature="0" />
    <path
       sodipodi:nodetypes="cssscccaaaaaaaacccaaaaaaacacaaaaaaccaaccaaaaacccsacc"
       inkscape:connector-curvature="0"
       id="path4025"
       d="m 240.44232,667.23667 c 3.56718,1.06102 8.00398,2.06939 11.60424,3.93947 3.46519,1.79994 6.08707,4.47358 9.85353,4.95975 2.5114,0.32417 8.45654,-1.96215 16.03853,-3.35535 10.80661,-1.98572 24.78245,-3.42262 35.54592,-3.72484 24.50585,14.64141 49.87278,28.92992 72.53567,44.32666 l 19.02284,13.82247 c 0,0 31.0363,22.43919 45.65629,34.77863 1.50459,1.26989 2.72268,2.87623 4.31759,4.03063 2.01413,1.45778 4.64002,1.98383 6.53875,3.58903 3.61765,3.05839 7.04574,6.75278 8.81573,11.14691 1.12673,2.79725 1.69979,6.10448 0.87338,9.00468 -0.80356,2.81994 -2.88309,5.38741 -5.33679,6.99277 -2.08681,1.36533 -4.78193,1.57132 -7.26719,1.77698 -2.50577,0.20734 -5.09836,0.10648 -7.52195,-0.56287 -2.82826,-0.78113 -7.87079,-3.94123 -7.87079,-3.94123 l -61.01061,-39.83423 62.69572,42.61785 c 0,0 0.80835,3.76397 0.55093,5.63293 -0.41503,3.01361 -1.7116,5.91663 -3.31066,8.5045 -1.21089,1.95958 -2.84324,3.67899 -4.63793,5.12307 -1.29225,1.0398 -2.72,2.02847 -4.31805,2.47274 -2.81619,0.78286 -5.85138,0.40522 -8.7668,0.19489 -3.96618,-0.28617 -7.97533,-0.76986 -11.76501,-1.97441 -4.92209,-1.56454 -9.50278,-4.11432 -13.95681,-6.72888 -12.36464,-7.25807 -35.19651,-24.72418 -35.19651,-24.72418 0,0 22.80692,18.94462 35.59423,26.30115 4.84807,2.78911 15.40376,6.65379 15.40376,6.65379 0,0 -3.88594,5.05501 -6.36886,7.00149 -3.07496,2.41064 -6.51185,4.6447 -10.30309,5.5897 -4.61219,1.14963 -9.57559,0.68807 -14.25946,-0.12155 -2.41748,-0.41785 -4.64493,-1.58195 -6.95381,-2.41136 -2.3408,-0.84088 -4.79725,-1.43387 -6.99401,-2.6003 -6.72876,-3.5728 -12.742,-8.41147 -18.59766,-13.28507 -2.5275,-2.10359 -7.09623,-6.85295 -7.09623,-6.85295 l 7.3311,6.6583 c 0,0 7.10013,5.34026 10.61417,8.05745 2.46945,1.90948 4.64499,4.24846 7.35702,5.79413 4.23672,2.41467 13.64525,5.27563 13.64525,5.27563 l 4.89573,0.36633 c 0,0 -1.48179,3.48334 -2.6208,4.97011 -1.37361,1.79317 -2.96272,3.56573 -4.96435,4.61247 -1.94285,1.01601 -4.23666,1.28647 -6.42605,1.40328 -3.59313,0.19172 -7.17983,-0.58996 -10.73133,-1.16769 -3.4434,-0.56016 -7.02272,-0.84412 -10.22686,-2.22396 -2.59392,-1.11711 -6.99678,-4.77814 -6.99678,-4.77814 l -0.98226,-0.68131 -72.54223,-38.55312 c 0,0 -5.63953,-2.58332 -14.48279,-7.89105 -5.90599,-3.54476 -10.92319,-8.453 -16.85268,-11.95825 -9.94718,-5.88027 -31.20479,-15.09873 -31.20479,-15.09873 z"
       style="fill:#ffffff;fill-opacity:1;stroke:none" />
    <path
       style="font-size:medium;font-style:normal;font-variant:normal;font-weight:normal;font-stretch:normal;text-indent:0;text-align:start;text-decoration:none;line-height:normal;letter-spacing:normal;word-spacing:normal;text-transform:none;direction:ltr;block-progression:tb;writing-mode:lr-tb;text-anchor:start;baseline-shift:baseline;color:#000000;fill:#000000;fill-opacity:1;fill-rule:nonzero;stroke:none;stroke-width:16;marker:none;visibility:visible;display:inline;overflow:visible;enable-background:accumulate;font-family:Sans;-inkscape-font-specification:Sans"
       d="m 238.68768,663.88 -0.82732,2.50319 -30.67467,93.12709 -0.7743,2.35469 2.28046,0.98643 c 0,0 21.33888,9.29436 30.89739,14.94488 5.55124,3.28163 10.57101,8.18904 16.84349,11.95378 8.79553,5.27907 14.41346,7.87722 14.60548,7.96566 l 72.3485,38.43881 0.90156,0.62578 c 0.15027,0.12436 1.07684,0.89527 2.46077,1.91979 1.49117,1.10395 3.23229,2.35439 5.00638,3.11839 3.75455,1.61692 7.5687,1.87207 10.86129,2.40771 3.45434,0.56194 7.2361,1.41635 11.31738,1.19858 2.31129,-0.12335 4.99616,-0.37669 7.54138,-1.70768 2.59412,-1.35657 4.39181,-3.45702 5.85492,-5.36697 1.09565,-1.43021 1.86386,-3.01132 2.3759,-4.1791 2.9017,0.1614 5.86126,0.044 8.80359,-0.68942 4.39205,-1.09474 8.12094,-3.57408 11.32799,-6.08826 2.9024,-2.27534 5.85968,-6.18316 6.43828,-6.95801 2.67899,0.52001 5.3633,0.81911 7.97626,1.00762 2.81766,0.20331 6.17622,0.69168 9.69455,-0.28637 2.19755,-0.61091 3.89441,-1.85534 5.29277,-2.98051 1.98833,-1.59987 3.82857,-3.5288 5.23972,-5.81248 1.73136,-2.80198 3.20398,-6.01935 3.69113,-9.55665 0.15237,-1.10628 0.0725,-2.12666 -0.0425,-3.09717 0.75149,0.32927 1.51407,0.66102 2.26983,0.86975 2.8351,0.78301 5.73288,0.87303 8.46418,0.64702 2.473,-0.20465 5.64941,-0.32295 8.52781,-2.20621 2.97547,-1.94672 5.44722,-4.92762 6.4701,-8.5172 1.06617,-3.74157 0.31943,-7.57654 -0.96521,-10.76583 -2.0269,-5.03196 -5.79338,-8.99994 -9.58848,-12.20834 -2.61794,-2.21322 -5.33543,-2.72989 -6.69285,-3.71236 -1.15767,-0.83791 -2.34275,-2.37132 -4.15784,-3.90327 -14.82751,-12.5146 -45.82107,-34.90676 -45.82107,-34.90676 l -19.01787,-13.82056 -0.0318,-0.0212 -0.0425,-0.0318 c -22.79596,-15.48718 -48.20128,-29.79318 -72.66662,-44.41038 l -0.67882,-0.40305 -0.78491,0.0212 c -10.93892,0.30716 -24.98054,1.74654 -35.96742,3.76539 -3.92659,0.72152 -7.38078,1.66809 -10.0976,2.3653 -2.71682,0.69721 -4.91976,0.99932 -5.10184,0.97582 -2.6716,-0.34485 -5.00799,-2.62887 -8.95209,-4.67756 -4.05572,-2.10666 -8.65298,-3.11699 -12.08106,-4.13663 l -2.52439,-0.75309 z m 3.52142,6.70346 c 3.02113,0.85506 6.12884,1.72805 8.58085,3.00169 2.9863,1.5512 5.90452,4.61225 10.76584,5.23973 2.32931,0.30067 4.35922,-0.3793 7.13833,-1.09249 2.7791,-0.7132 6.08157,-1.60876 9.73698,-2.28044 10.38989,-1.90915 23.88232,-3.29838 34.3764,-3.63812 24.29724,14.50067 49.3228,28.62379 71.61664,43.76337 0.025,0.017 0.0494,0.0362 0.0743,0.053 l 18.94362,13.76754 0.0106,0.0106 c 0,0 31.07983,22.48792 45.49226,34.65219 1.1941,1.00783 2.44389,2.68698 4.47605,4.15783 2.67083,1.93311 5.20574,2.46064 6.38524,3.4578 3.44022,2.90837 6.53744,6.33069 8.05051,10.087 0.96881,2.4052 1.36095,5.18558 0.7743,7.2444 -0.58425,2.05029 -2.27894,4.19849 -4.21088,5.46246 -1.29518,0.8474 -3.50586,1.14038 -6.0034,1.34705 -2.28025,0.18869 -4.56408,0.0785 -6.57618,-0.47729 -0.90755,-0.25065 -2.87126,-1.17838 -4.4124,-2.02589 -1.5181,-0.83483 -2.65893,-1.54779 -2.6941,-1.56979 l -0.0424,-0.0212 -60.6811,-39.62675 -0.24395,-0.15909 -0.0425,-0.0212 -3.01231,4.51847 0.0425,0.0212 61.69935,41.94964 c 0.0634,0.34227 0.0864,0.39895 0.1591,0.90156 0.15565,1.07605 0.22298,2.44794 0.18031,2.75775 -0.3429,2.48991 -1.46071,5.07218 -2.92745,7.44592 -1.01064,1.63552 -2.42952,3.14537 -4.03056,4.43363 -1.18617,0.95443 -2.34259,1.69523 -3.34112,1.97283 -2.11406,0.58767 -4.83581,0.32347 -7.84898,0.10608 -3.87815,-0.27981 -7.67427,-0.75555 -11.13708,-1.85616 -4.5739,-1.45389 -8.98911,-3.88747 -13.40689,-6.48073 -11.94369,-7.01098 -34.68269,-24.35542 -34.8325,-24.46973 -3.4e-4,-3.4e-4 -0.0849,-0.0637 -0.0849,-0.0637 L 361.8,787.39533 c 0,0 0.0836,0.0625 0.0849,0.0637 0.24536,0.20464 22.6312,18.87212 35.88258,26.49563 3.74477,2.15437 8.81737,4.16786 12.24016,5.47307 -1.23454,1.43308 -2.65506,3.01194 -3.52143,3.69115 -2.94288,2.30707 -6.09047,4.30657 -9.28089,5.10182 -4.00308,0.99781 -8.60444,0.61458 -13.14174,-0.16971 -1.8593,-0.32136 -3.95523,-1.3762 -6.50193,-2.29105 -2.52738,-0.90787 -4.8469,-1.48757 -6.63981,-2.43955 -1.37468,-0.72991 -2.71157,-1.54899 -4.04117,-2.38654 -1.03713,-0.89252 -2.10523,-1.85032 -3.31991,-2.78955 -3.52007,-2.72187 -10.41668,-7.90239 -10.54308,-7.99747 l -7.23379,-6.57618 -3.7866,3.89269 c 0,0 4.48321,4.69357 7.31864,7.05345 4.49755,3.74324 9.16671,7.52041 14.25546,10.76586 1.28287,1.10201 2.68393,2.21197 4.34874,3.16077 4.93758,2.81412 14.19181,5.5155 14.19181,5.5155 l 0.28639,0.0955 0.3076,0.0211 0.81671,0.0637 c -0.16491,0.29289 -0.39099,0.77183 -0.49852,0.91217 -1.28413,1.67636 -2.65323,3.12397 -4.06238,3.86085 -1.34046,0.701 -3.24645,0.98217 -5.31397,1.09253 -3.10495,0.16566 -6.50195,-0.54143 -10.15063,-1.13496 -3.59422,-0.5847 -6.93475,-0.89368 -9.5885,-2.03648 -0.81981,-0.35308 -2.57636,-1.49731 -3.93509,-2.50319 -1.35874,-1.00586 -2.40773,-1.86677 -2.40773,-1.86677 l -0.0849,-0.0743 -0.0955,-0.0743 -0.98643,-0.67884 -0.12727,-0.0955 -0.1485,-0.0743 -72.53942,-38.5553 -0.0743,-0.0318 -0.0637,-0.0318 c 0,0 -5.48378,-2.50786 -14.22363,-7.75351 -5.53951,-3.32485 -10.55697,-8.2356 -16.86472,-11.96446 -9.34856,-5.52629 -25.84884,-12.75488 -29.24273,-14.23411 l 29.09426,-88.31163 z"
       id="path3984"
       inkscape:connector-curvature="0" />
    <path
       style="fill:#ffffff;fill-opacity:1;stroke:none"
       d="m 274.00317,796.31186 2.39566,1.29668 c 0,0 6.17233,-6.02534 9.89026,-8.11326 3.1796,-1.78562 6.68525,-3.80196 10.32691,-3.61094 3.02568,0.15871 5.98015,1.84003 8.21911,3.88132 2.03242,1.85299 3.51488,4.43975 4.19588,7.10442 0.50984,1.99484 0.49782,4.23787 -0.20408,6.17349 -1.5452,4.26125 -5.2997,7.382 -8.36622,10.72002 -3.35091,3.64759 -6.24748,8.39733 -10.89852,10.10072 -2.73772,1.0027 -6.05032,0.73463 -8.73778,-0.39596 -2.3979,-1.00877 -4.30426,-3.13368 -5.70424,-5.32631 -1.81316,-2.83979 -2.89322,-6.24521 -3.14923,-9.60474 -0.31389,-4.11912 -0.26465,-9.49134 2.03225,-12.22544 z"
       id="path3053"
       inkscape:connector-curvature="0"
       sodipodi:nodetypes="ccaaaaaaaaaac" />
    <path
       style="font-size:medium;font-style:normal;font-variant:normal;font-weight:normal;font-stretch:normal;text-indent:0;text-align:start;text-decoration:none;line-height:normal;letter-spacing:normal;word-spacing:normal;text-transform:none;direction:ltr;block-progression:tb;writing-mode:lr-tb;text-anchor:start;baseline-shift:baseline;color:#000000;fill:#000000;fill-opacity:1;fill-rule:nonzero;stroke:none;stroke-width:16;marker:none;visibility:visible;display:inline;overflow:visible;enable-background:accumulate;font-family:Sans;-inkscape-font-specification:Sans"
       d="m 345.58645,657.91667 c -7.77524,1.41792 -15.74725,1.31996 -23.61063,1.75012 -4.80395,1.26593 -7.79719,5.69469 -11.95811,8.11487 -3.53158,2.31416 -7.09439,4.7814 -10.88875,6.55423 -6.01912,0.56115 -13.30247,0.62399 -17.31018,5.85491 -3.542,4.68084 -1.8773,11.69805 2.40771,15.31611 7.07397,6.47171 17.55982,7.00846 26.60839,5.67646 5.53842,-0.67479 10.68769,-2.86672 15.59577,-5.34765 7.68148,-3.1327 16.15308,-1.68549 24.24702,-2.43954 3.89263,-0.19628 7.9789,0.35753 10.89309,3.13959 1.00589,1.19407 1.83179,1.25837 2.76838,0.13789 1.2049,-0.62348 3.16848,-2.37823 1.61221,-3.64871 -2.87358,-2.18338 -5.97794,-4.40794 -9.70516,-4.84727 -6.94115,-0.53891 -13.93453,0.27589 -20.89526,0.21212 -6.79571,0.19844 -12.96074,3.26825 -19.05112,5.91604 -6.95798,2.27036 -14.683,2.79631 -21.7848,0.82984 -4.2248,-1.17713 -8.97539,-4.23533 -9.23847,-9.04754 0.15583,-3.33105 3.49825,-5.07788 6.44888,-5.43064 3.46609,-0.82072 7.27262,-0.2774 10.57273,-1.67964 7.00344,-3.88062 13.59216,-8.51317 19.76253,-13.57284 3.11478,-1.27038 6.59304,-0.14979 9.85346,-0.66945 4.3525,-0.28638 8.90233,-0.2748 13.05707,-1.55796 1.90979,-1.00136 3.05762,-3.86392 0.95858,-5.31003 -0.0812,-0.0855 -0.22875,0.0323 -0.34334,0.0491 z"
       id="path3049"
       inkscape:connector-curvature="0" />
    <path
       style="fill:#ffffff;fill-opacity:1;stroke:none"
       d="m 319.68068,793.54118 c -9.30998,7.95727 -23.3839,25.32599 -23.3839,25.32599 0,0 -0.26801,2.94921 0.19303,4.31217 0.75497,2.23186 2.38401,4.12264 4.0354,5.80311 2.06766,2.10404 4.39479,4.19668 7.17653,5.17856 1.91336,0.67537 4.09034,0.73155 6.07843,0.32596 1.49322,-0.30467 3.07042,-0.8943 4.10458,-2.01367 8.13141,-8.80124 15.93769,-14.24783 20.73563,-23.24634 0.85068,-1.59553 1.16619,-3.55589 0.91581,-5.34664 -0.4839,-3.46061 -1.98171,-7.06627 -4.53604,-9.45066 -2.23278,-2.0842 -5.45984,-3.34679 -8.51394,-3.38765 -2.4164,-0.0323 -5.07612,1.02104 -6.80553,2.49917 z"
       id="path3055"
       inkscape:connector-curvature="0"
       sodipodi:nodetypes="scaaaassaaas" />
    <path
       style="font-size:medium;font-style:normal;font-variant:normal;font-weight:normal;font-stretch:normal;text-indent:0;text-align:start;text-decoration:none;line-height:normal;letter-spacing:normal;word-spacing:normal;text-transform:none;direction:ltr;block-progression:tb;writing-mode:lr-tb;text-anchor:start;baseline-shift:baseline;color:#000000;fill:#000000;fill-opacity:1;fill-rule:nonzero;stroke:none;stroke-width:16;marker:none;visibility:visible;display:inline;overflow:visible;enable-background:accumulate;font-family:Sans;-inkscape-font-specification:Sans"
       d="m 296.75953,783.17389 c -4.73087,-0.24815 -8.64367,2.18079 -11.8053,3.95631 -2.27192,1.27587 -4.73462,3.34845 -6.79891,5.16548 -1.22866,1.08149 -1.51722,1.38237 -2.17438,2.00468 l -0.68944,-0.37123 -1.94103,-1.06069 -1.4213,1.69707 c -3.4114,4.06076 -2.99141,9.86229 -2.66229,14.18121 0.28942,3.79786 1.48403,7.60385 3.56386,10.86129 1.57346,2.46429 3.75677,5.02623 6.9368,6.36404 3.28118,1.38037 7.17475,1.74521 10.72341,0.44548 5.83977,-2.13876 8.88055,-7.46201 11.96438,-10.81887 2.88993,-3.14576 7.03938,-6.43796 8.92026,-11.62497 0.92772,-2.5583 0.91968,-5.29688 0.28639,-7.77473 -0.8107,-3.17214 -2.51941,-6.18522 -4.99577,-8.44296 -2.56924,-2.34244 -5.97157,-4.37569 -9.90668,-4.58211 z m -0.28639,5.42004 c 2.11626,0.11101 4.62509,1.44186 6.53375,3.18202 1.58846,1.44823 2.84283,3.61286 3.39414,5.77006 0.38639,1.51181 0.34884,3.25856 -0.12727,4.57149 -1.2095,3.3355 -4.57405,6.28098 -7.81716,9.81123 -3.61799,3.93834 -6.37013,8.11892 -9.83245,9.38695 -1.92678,0.70571 -4.65214,0.53081 -6.74586,-0.35001 -1.61578,-0.67974 -3.23893,-2.36417 -4.46544,-4.28511 -1.5465,-2.42215 -2.51392,-5.42628 -2.73654,-8.34752 -0.21341,-2.8004 0.007,-6.07929 0.57276,-8.26263 l 1.61223,0.88036 1.4319,-1.4001 c 0,0 1.49583,-1.46438 3.4472,-3.182 1.95135,-1.71762 4.43012,-3.69581 5.87611,-4.50787 3.1976,-1.7957 6.30418,-3.40076 8.85663,-3.26687 z"
       id="path4077"
       inkscape:connector-curvature="0" />
    <path
       style="fill:#ffffff;fill-opacity:1;stroke:none"
       d="m 319.50593,830.63233 c 0,0 -1.19328,3.11531 -0.89673,4.67367 0.48041,2.52458 2.18,4.83744 4.13218,6.50869 1.67457,1.43361 3.89336,2.24977 6.06259,2.64174 2.64599,0.47813 5.68077,0.83145 8.05509,-0.43048 3.82028,-2.03039 7.82525,-10.3547 7.82525,-10.3547 0,0 2.46527,-5.52035 2.9435,-8.47121 0.40559,-2.50251 0.83001,-5.24623 -0.0995,-7.60484 -0.77549,-1.96779 -2.52076,-3.5033 -4.26787,-4.6955 -0.99262,-0.67734 -2.17694,-1.12754 -3.36826,-1.2853 -0.91536,-0.12121 -2.75602,0.28002 -2.75602,0.28002 l -8.00368,9.49047 z"
       id="path3059"
       inkscape:connector-curvature="0"
       sodipodi:nodetypes="caaaacaaaaccc" />
    <path
       style="fill:#ffffff;fill-opacity:1;stroke:none"
       d="m 318.54614,668.31321 c -2.66862,1.5685 -3.0369,2.63137 -5.92796,3.97737 l 26.81154,15.92642 13.08415,-0.27301 z"
       id="path3836"
       inkscape:connector-curvature="0"
       sodipodi:nodetypes="ccccc" />
    <path
       style="font-size:medium;font-style:normal;font-variant:normal;font-weight:normal;font-stretch:normal;text-indent:0;text-align:start;text-decoration:none;line-height:normal;letter-spacing:normal;word-spacing:normal;text-transform:none;direction:ltr;block-progression:tb;writing-mode:lr-tb;text-anchor:start;baseline-shift:baseline;color:#000000;fill:#000000;fill-opacity:1;fill-rule:nonzero;stroke:none;stroke-width:16;marker:none;visibility:visible;display:inline;overflow:visible;enable-background:accumulate;font-family:Sans;-inkscape-font-specification:Sans"
       d="m 326.52201,788.32876 c -3.23194,-0.0432 -6.31172,1.19268 -8.60207,3.15021 -9.76602,8.34707 -23.73785,25.67887 -23.73785,25.67887 l -0.51974,0.63639 -0.0743,0.82736 c 0,0 -0.0743,0.84067 -0.0849,1.8668 -0.0106,1.02609 -0.0585,2.16798 0.41367,3.56385 0.98571,2.91402 2.92762,5.06072 4.66697,6.83074 2.15069,2.18851 4.73421,4.60695 8.20961,5.83368 2.47838,0.87484 5.11417,0.92791 7.53077,0.43489 1.79865,-0.36697 3.91249,-1.051 5.55792,-2.83198 7.92252,-8.57517 15.98,-14.13605 21.13922,-23.81214 1.15394,-2.16434 1.54051,-4.63072 1.20916,-7.00043 -0.55449,-3.96551 -2.21217,-8.10799 -5.37761,-11.06282 -2.78693,-2.60148 -6.55429,-4.06488 -10.33095,-4.11542 z m -0.0743,5.43066 c 2.33152,0.0312 5.02483,1.08475 6.70345,2.65167 1.94324,1.81395 3.27784,4.89324 3.69115,7.84898 0.16943,1.21178 -0.0678,2.66444 -0.61519,3.69113 -4.43667,8.32097 -11.9928,13.64985 -20.33312,22.67721 -0.42288,0.45771 -1.46387,0.95621 -2.65168,1.19855 -1.55957,0.31817 -3.28682,0.25318 -4.63514,-0.22273 -2.08809,-0.73707 -4.15668,-2.50957 -6.14129,-4.52908 -1.56344,-1.59098 -2.88055,-3.21273 -3.40476,-4.76241 0.0112,0.033 -0.13543,-0.98209 -0.12727,-1.77134 0.004,-0.35085 0.0181,-0.38808 0.0318,-0.63641 1.51736,-1.85083 14.14657,-17.18108 22.47567,-24.30001 1.16851,-0.99871 3.40551,-1.86698 5.00637,-1.84556 z"
       id="path4093"
       inkscape:connector-curvature="0" />
    <path
       style="font-size:medium;font-style:normal;font-variant:normal;font-weight:normal;font-stretch:normal;text-indent:0;text-align:start;text-decoration:none;line-height:normal;letter-spacing:normal;word-spacing:normal;text-transform:none;direction:ltr;block-progression:tb;writing-mode:lr-tb;text-anchor:start;baseline-shift:baseline;color:#000000;fill:#000000;fill-opacity:1;fill-rule:nonzero;stroke:none;stroke-width:16;marker:none;visibility:visible;display:inline;overflow:visible;enable-background:accumulate;font-family:Sans;-inkscape-font-specification:Sans"
       d="m 338.85763,808.88458 c -0.4,0.0305 -0.74564,0.088 -1.08188,0.13791 -0.6725,0.0997 -1.21977,0.22275 -1.21977,0.22275 l -0.90159,0.1909 -0.59396,0.71067 -7.97627,9.43999 -0.0318,0.0424 -9.42938,9.04756 -0.43488,0.41365 -0.22273,0.57276 c 0,0 -0.33501,0.89202 -0.63642,2.01528 -0.3014,1.12326 -0.72787,2.37399 -0.39245,4.13663 0.64334,3.38072 2.73733,6.09131 5.0382,8.06113 2.18796,1.87312 4.85107,2.80461 7.35047,3.25628 2.77318,0.50108 6.40472,1.09981 9.81122,-0.71066 2.92084,-1.55239 4.79147,-4.4008 6.36404,-6.88376 1.57256,-2.48301 2.63047,-4.68822 2.63047,-4.68822 l 0.0212,-0.0319 0.0106,-0.0425 c 0,0 0.64406,-1.43777 1.34705,-3.25625 0.70299,-1.81852 1.48893,-3.94794 1.80315,-5.88676 0.40785,-2.51659 1.04168,-5.74772 -0.25456,-9.03693 -1.10835,-2.81239 -3.32324,-4.61027 -5.27154,-5.93977 -1.36053,-0.92837 -2.91407,-1.51363 -4.53969,-1.72891 -0.53949,-0.0714 -0.98947,-0.073 -1.38948,-0.0424 z m 0.67883,5.42006 c 0.75702,0.10026 1.57087,0.41164 2.1956,0.83796 1.5459,1.05487 2.82422,2.32397 3.26687,3.44716 0.56274,1.42799 0.35026,3.6847 -0.053,6.17312 -0.16401,1.01204 -0.85694,3.12547 -1.50616,4.80487 -0.63497,1.64253 -1.17348,2.87118 -1.19856,2.92745 -6.2e-4,0 -0.0318,0.0636 -0.0318,0.0636 -0.046,0.0951 -0.95164,1.94142 -2.30166,4.07297 -1.38498,2.18683 -3.4281,4.51778 -4.32754,4.99581 -1.34214,0.71331 -3.77101,0.61424 -6.28979,0.15913 -1.83909,-0.33237 -3.62246,-1.04242 -4.78364,-2.03653 -1.6035,-1.37279 -2.91757,-3.28495 -3.23505,-4.95334 0.0389,0.20429 0.0759,-0.88371 0.29698,-1.70767 0.14504,-0.54052 0.21594,-0.71616 0.30761,-0.97582 l 9.13238,-8.77179 0.10608,-0.0954 0.0955,-0.10609 7.36107,-8.73995 c 0.47666,-0.0706 1.12882,-0.0738 0.9652,-0.0955 z"
       id="path4095"
       inkscape:connector-curvature="0" />
    <path
       style="fill:#000000;fill-opacity:1;stroke:none"
       d="M 44.28125 233.84375 L 44.28125 393.375 L 165.6875 434.65625 L 214.3125 291.65625 L 44.28125 233.84375 z "
       transform="translate(0,352.36218)"
       id="rect3452" />
    <text
       xml:space="preserve"
       style="font-size:137.80200195px;font-style:normal;font-variant:normal;font-weight:bold;font-stretch:normal;text-align:center;line-height:125%;letter-spacing:0px;word-spacing:0px;writing-mode:lr-tb;text-anchor:middle;fill:#ffffff;fill-opacity:1;stroke:none;font-family:Univers Com;-inkscape-font-specification:Univers Com Bold"
       x="335.37201"
       y="662.43658"
       id="text3454"
       sodipodi:linespacing="125%"
       transform="matrix(0.94677014,0.32191039,-0.32191039,0.94677014,0,0)"><tspan
         sodipodi:role="line"
         id="tspan3456"
         x="335.37201"
         y="662.43658">$</tspan></text>
    <rect
       style="fill:#ffffff;fill-opacity:1;stroke:#000000;stroke-width:6"
       id="rect3488"
       width="34.808971"
       height="121.76247"
       x="407.41617"
       y="547.87305"
       transform="matrix(0.94677014,0.32191039,-0.32191039,0.94677014,0,0)" />
    <path
       style="fill:#000000;fill-opacity:1;stroke:none"
       d="M 657.3125 236.8125 L 481.78125 305.125 L 536.53125 445.875 L 657.3125 398.875 L 657.3125 236.8125 z "
       transform="translate(0,352.36218)"
       id="rect3498" />
    <text
       sodipodi:linespacing="125%"
       id="text3500"
       y="911.72681"
       x="287.67334"
       style="font-size:137.80200195px;font-style:normal;font-variant:normal;font-weight:bold;font-stretch:normal;text-align:center;line-height:125%;letter-spacing:0px;word-spacing:0px;writing-mode:lr-tb;text-anchor:middle;fill:#ffffff;fill-opacity:1;stroke:none;font-family:Univers Com;-inkscape-font-specification:Univers Com Bold"
       xml:space="preserve"
       transform="matrix(0.93194762,-0.36259293,0.36259293,0.93194762,0,0)"><tspan
         y="911.72681"
         x="287.67334"
         id="tspan3502"
         sodipodi:role="line">ยง</tspan></text>
    <rect
       y="794.54504"
       x="-213.40497"
       height="121.76247"
       width="34.808971"
       id="rect3504"
       style="fill:#ffffff;fill-opacity:1;stroke:#000000;stroke-width:6"
       transform="matrix(-0.93194762,0.36259293,0.36259293,0.93194762,0,0)" />
  </g>
</svg>
